HIERARCHY
ROOT Pelvis
{
	OFFSET 0.000000 0.000000 0.000000
	CHANNELS 6 Xposition Yposition Zposition Xrotation Yrotation Zrotation
	JOINT LeftUpLeg_virtual
	{
		OFFSET 0.000000 0.000000 0.000000
		CHANNELS 3 Xrotation Yrotation Zrotation
		JOINT LeftUpLeg
		{
			OFFSET 18.735201 -5.666702 -4.541200
			CHANNELS 3 Xrotation Yrotation Zrotation
			JOINT LeftLeg
			{
				OFFSET -0.021200 -31.938179 0.493100
				CHANNELS 3 Xrotation Yrotation Zrotation
				JOINT LeftFoot
				{
					OFFSET 0.021200 -31.938179 -4.336299
					CHANNELS 3 Xrotation Yrotation Zrotation
					JOINT LeftToeBase
					{
						OFFSET 0.943001 -26.722000 15.023500
						CHANNELS 3 Xrotation Yrotation Zrotation
						End Site
						{
							OFFSET 0 0 0
						}
					}
				}
			}
		}
	}
	JOINT RightUpLeg_virtual
	{
		OFFSET 0.000000 0.000000 0.000000
		CHANNELS 3 Xrotation Yrotation Zrotation
		JOINT RightUpLeg
		{
			OFFSET -18.735201 -5.666702 -4.541200
			CHANNELS 3 Xrotation Yrotation Zrotation
			JOINT RightLeg
			{
				OFFSET 0.018946 -31.938133 0.493100
				CHANNELS 3 Xrotation Yrotation Zrotation
				JOINT RightFoot
				{
					OFFSET -0.018946 -31.938126 -4.336299
					CHANNELS 3 Xrotation Yrotation Zrotation
					JOINT RightToeBase
					{
						OFFSET -0.943001 -26.722004 15.023500
						CHANNELS 3 Xrotation Yrotation Zrotation
						End Site
						{
							OFFSET 0 0 0
						}
					}
				}
			}
		}
	}
	JOINT Hips_virtual
	{
		OFFSET 0.000000 0.000000 0.000000
		CHANNELS 3 Xrotation Yrotation Zrotation
		JOINT Hips
		{
			OFFSET -0.000000 -0.000000 -0.000000
			CHANNELS 3 Xrotation Yrotation Zrotation
			JOINT Spine
			{
				OFFSET 0.000000 10.199997 -0.299500
				CHANNELS 3 Xrotation Yrotation Zrotation
				JOINT Spine1
				{
					OFFSET 0.000000 11.900002 -1.516600
					CHANNELS 3 Xrotation Yrotation Zrotation
					JOINT Spine2
					{
						OFFSET 0.000000 13.600006 -2.842500
						CHANNELS 3 Xrotation Yrotation Zrotation
						JOINT Neck_virtual
						{
							OFFSET 0.000000 0.000000 0.000000
							CHANNELS 3 Xrotation Yrotation Zrotation
							JOINT Neck
							{
								OFFSET 0.000000 9.624100 -2.890100
								CHANNELS 3 Xrotation Yrotation Zrotation
								JOINT Head
								{
									OFFSET 0.000000 14.068802 -1.351900
									CHANNELS 3 Xrotation Yrotation Zrotation
									End Site
									{
										OFFSET 0 0 0
									}
								}
							}
						}
						JOINT LeftShoulder_virtual
						{
							OFFSET 0.000000 0.000000 0.000000
							CHANNELS 3 Xrotation Yrotation Zrotation
							JOINT LeftShoulder
							{
								OFFSET 15.263000 10.923401 -0.547700
								CHANNELS 3 Xrotation Yrotation Zrotation
								JOINT LeftArm
								{
									OFFSET 25.438599 -2.830597 -13.032500
									CHANNELS 3 Xrotation Yrotation Zrotation
									JOINT LeftForeArm
									{
										OFFSET 29.960503 0.000000 0.000000
										CHANNELS 3 Xrotation Yrotation Zrotation
										JOINT LeftHand
										{
											OFFSET 27.849251 0.000000 0.000000
											CHANNELS 3 Xrotation Yrotation Zrotation
											End Site
											{
												OFFSET 0 0 0
											}
										}
									}
								}
							}
						}
						JOINT RightShoulder_virtual
						{
							OFFSET 0.000000 0.000000 0.000000
							CHANNELS 3 Xrotation Yrotation Zrotation
							JOINT RightShoulder
							{
								OFFSET -15.263000 10.923401 -0.547700
								CHANNELS 3 Xrotation Yrotation Zrotation
								JOINT RightArm
								{
									OFFSET -25.438599 -2.830597 -13.032500
									CHANNELS 3 Xrotation Yrotation Zrotation
									JOINT RightForeArm
									{
										OFFSET -29.960503 0.000000 0.000000
										CHANNELS 3 Xrotation Yrotation Zrotation
										JOINT RightHand
										{
											OFFSET -27.849251 0.000000 0.000000
											CHANNELS 3 Xrotation Yrotation Zrotation
											End Site
											{
												OFFSET 0 0 0
											}
										}
									}
								}
							}
						}
					}
				}
			}
		}
	}
}
MOTION
Frames: 8
Frame Time: 0.03333333
-6.140749 91.254456 11.098610 0.000000 0.000000 0.000000 0.803373 -34.348441 1.417560 -22.183893 14.212918 16.461565 27.774476 5.332672 -7.849308 1.102410 -3.520801 1.321534 0.000000 0.000000 0.000000 0.469791 -33.207133 1.469261 -20.459917 2.705675 -12.362623 30.540354 3.845380 1.778418 -3.727055 -1.554953 -0.944804 0.000000 0.000000 0.000000 0.607842 -33.399741 1.613125 -0.805020 -0.067767 -0.144382 7.673162 2.704710 1.447495 2.660535 -5.639058 2.927125 0.000000 0.000000 0.000000 2.290682 -1.524307 2.173573 0.394764 3.318985 -0.828501 0.000000 0.000000 0.000000 3.875153 -2.482026 1.939420 -5.785482 -17.689423 -0.880077 -48.244874 2.571513 -31.413481 -8.949637 -68.294850 -10.313254 0.000000 0.000000 0.000000 0.785372 -1.043412 1.908683 9.702257 7.406505 3.689423 5.070444 -3.440153 59.518378 20.965047 44.525880 0.598399 0.000000 0.000000 0.000000 
-6.135241 91.265228 11.162807 0.000000 0.000000 0.000000 0.847909 -34.333930 1.417806 -22.257175 14.128379 16.475945 27.870387 5.352345 -7.869148 1.086333 -3.499450 1.342862 0.000000 0.000000 0.000000 0.529809 -33.175513 1.481926 -20.464717 2.693390 -12.369398 30.494920 3.866615 1.785102 -3.579560 -1.508954 -0.880592 0.000000 0.000000 0.000000 0.648721 -33.335937 1.614848 -0.804192 -0.070842 -0.136516 7.697944 2.700728 1.451564 2.639961 -5.639964 2.944940 0.000000 0.000000 0.000000 2.279679 -1.531109 2.187395 0.378173 3.309841 -0.837293 0.000000 0.000000 0.000000 3.862546 -2.482711 1.938961 -5.764311 -17.545515 -0.902421 -48.223260 2.586011 -31.416551 -8.940870 -68.194781 -10.301735 0.000000 0.000000 0.000000 0.753928 -1.050450 1.918785 9.730485 7.406013 3.743660 5.029666 -3.244510 59.417796 20.667551 44.247096 0.909288 0.000000 0.000000 0.000000 
-6.139675 91.277176 11.237286 0.000000 0.000000 0.000000 0.995117 -34.306736 1.445480 -22.412199 13.960590 16.480668 27.976667 5.384590 -7.868159 1.028937 -3.465014 1.367189 0.000000 0.000000 0.000000 0.689866 -33.141471 1.519625 -20.500902 2.659149 -12.362034 30.461756 3.859839 1.790248 -3.501732 -1.485210 -0.771577 0.000000 0.000000 0.000000 0.799253 -33.270767 1.643721 -0.802533 -0.072132 -0.133464 7.733561 2.672754 1.462281 2.573653 -5.596933 2.987546 0.000000 0.000000 0.000000 2.215832 -1.488876 2.227492 0.386640 3.369648 -0.872763 0.000000 0.000000 0.000000 3.799985 -2.439283 1.960655 -5.754255 -17.298035 -0.987981 -48.137056 2.499213 -31.494907 -9.216235 -68.052685 -10.509956 0.000000 0.000000 0.000000 0.671361 -1.012499 1.949656 9.798135 7.388196 3.787065 5.052623 -3.082653 59.345068 20.215159 43.995308 1.355173 0.000000 0.000000 0.000000 
-6.154677 91.290634 11.311474 0.000000 0.000000 0.000000 1.232841 -34.249867 1.496878 -22.629115 13.707436 16.476078 28.057773 5.427489 -7.848143 0.941632 -3.428131 1.388822 0.000000 0.000000 0.000000 0.933935 -33.082793 1.577774 -20.557693 2.581267 -12.341801 30.427161 3.805565 1.793915 -3.592009 -1.501630 -0.651717 0.000000 0.000000 0.000000 1.045523 -33.196239 1.698248 -0.800752 -0.073692 -0.139036 7.774260 2.626050 1.461130 2.464571 -5.514802 3.044975 0.000000 0.000000 0.000000 2.096873 -1.403661 2.287895 0.419389 3.498111 -0.936433 0.000000 0.000000 0.000000 3.691487 -2.356457 1.999848 -5.754484 -16.971536 -1.123696 -48.010397 2.316184 -31.662524 -9.758856 -67.900481 -10.926307 0.000000 0.000000 0.000000 0.541712 -0.936955 1.998171 9.904888 7.350932 3.801833 5.111361 -2.917496 59.281076 19.624187 43.800432 1.913432 0.000000 0.000000 0.000000 
-6.178618 91.302620 11.379238 0.000000 0.000000 0.000000 1.541279 -34.131842 1.566285 -22.889596 13.366305 16.453752 28.088721 5.477430 -7.813575 0.865090 -3.401209 1.398434 0.000000 0.000000 0.000000 1.243380 -32.972001 1.651562 -20.634901 2.461059 -12.305859 30.410051 3.709957 1.788638 -3.813240 -1.547657 -0.526980 0.000000 0.000000 0.000000 1.367363 -33.095029 1.778313 -0.800349 -0.076702 -0.147877 7.810431 2.567274 1.430397 2.320140 -5.400534 3.112642 0.000000 0.000000 0.000000 1.927785 -1.284768 2.359822 0.471699 3.690745 -1.030607 0.000000 0.000000 0.000000 3.549167 -2.239797 2.053959 -5.764193 -16.605433 -1.291913 -47.892730 2.074029 -31.925558 -10.527691 -67.772648 -11.516461 0.000000 0.000000 0.000000 0.377950 -0.830612 2.059650 10.043750 7.290961 3.782592 5.170780 -2.763021 59.195542 18.901867 43.647402 2.584393 0.000000 0.000000 0.000000 
-6.212115 91.315094 11.439594 0.000000 0.000000 0.000000 1.894839 -33.922695 1.647964 -23.177291 12.936305 16.410641 28.065826 5.529054 -7.773164 0.843754 -3.392926 1.389215 0.000000 0.000000 0.000000 1.601051 -32.773802 1.736140 -20.742595 2.304568 -12.254121 30.416646 3.587872 1.762020 -4.077699 -1.605871 -0.387146 0.000000 0.000000 0.000000 1.743889 -32.930924 1.878686 -0.800328 -0.081769 -0.157280 7.833374 2.512102 1.352393 2.154655 -5.263933 3.181126 0.000000 0.000000 0.000000 1.723458 -1.147182 2.429661 0.541776 3.942413 -1.157224 0.000000 0.000000 0.000000 3.389599 -2.101156 2.117405 -5.781684 -16.244014 -1.466296 -47.822854 1.793589 -32.284190 -11.504929 -67.711067 -12.260246 0.000000 0.000000 0.000000 0.192260 -0.702272 2.127972 10.205899 7.221644 3.727495 5.235408 -2.640214 59.046644 18.052801 43.506311 3.363131 0.000000 0.000000 0.000000 
-6.255164 91.325279 11.494064 0.000000 0.000000 0.000000 2.277172 -33.602680 1.739210 -23.492345 12.421151 16.352494 27.988566 5.576595 -7.738919 0.900390 -3.415925 1.349583 0.000000 0.000000 0.000000 1.990438 -32.460122 1.828657 -20.864213 2.095494 -12.189582 30.432840 3.437560 1.707604 -4.389982 -1.672213 -0.260406 0.000000 0.000000 0.000000 2.157039 -32.661316 1.995234 -0.801465 -0.085900 -0.162061 7.840191 2.470928 1.222638 1.981828 -5.112044 3.245384 0.000000 0.000000 0.000000 1.506394 -1.003939 2.487128 0.629045 4.245395 -1.317465 0.000000 0.000000 0.000000 3.223185 -1.951042 2.182889 -5.806541 -15.913316 -1.638568 -47.812728 1.501633 -32.728098 -12.655232 -67.731311 -13.134162 0.000000 0.000000 0.000000 -0.002362 -0.562216 2.198923 10.375699 7.158329 3.644512 5.332819 -2.594412 58.816869 17.081919 43.349626 4.244383 0.000000 0.000000 0.000000 
-6.310369 91.335831 11.534603 0.000000 0.000000 0.000000 2.677309 -33.150289 1.838612 -23.838234 11.835634 16.282741 27.859387 5.616030 -7.722946 1.025827 -3.478760 1.270666 0.000000 0.000000 0.000000 2.399289 -32.013541 1.928988 -20.970870 1.802917 -12.127247 30.444414 3.243938 1.630706 -4.824341 -1.753484 -0.194565 0.000000 0.000000 0.000000 2.587758 -32.247229 2.119173 -0.805304 -0.088261 -0.164109 7.832048 2.451836 1.055824 1.815864 -4.958185 3.305078 0.000000 0.000000 0.000000 1.289310 -0.864218 2.529207 0.733726 4.588305 -1.510954 0.000000 0.000000 0.000000 3.062305 -1.802506 2.243053 -5.836786 -15.633115 -1.810376 -47.846141 1.214522 -33.242193 -13.908046 -67.774294 -14.082659 0.000000 0.000000 0.000000 -0.195063 -0.423671 2.267540 10.541980 7.123089 3.534170 5.525869 -2.621376 58.498118 16.015883 43.180029 5.197886 0.000000 0.000000 0.000000 
